<svg width="549" height="549" viewBox="0 0 549 549" fill="none" xmlns="http://www.w3.org/2000/svg">
<path opacity="0.4" d="M307.709 105.232C217.847 105.912 145.55 179.311 146.231 269.173C146.911 359.035 220.31 431.332 310.172 430.652C400.034 429.972 472.33 356.572 471.65 266.71C470.97 176.848 397.571 104.552 307.709 105.232Z" fill="url(#paint0_linear)"/>
<g opacity="0.4" filter="url(#filter0_d)">
<path opacity="0.4" d="M274.5 520C412.295 520 524 408.295 524 270.5C524 132.705 412.295 21 274.5 21C136.705 21 25 132.705 25 270.5C25 408.295 136.705 520 274.5 520Z" stroke="white" stroke-width="2"/>
</g>
<g opacity="0.5">
<g opacity="0.5" filter="url(#filter1_d)">
<path opacity="0.5" d="M299.34 439.677C395.072 439.677 472.678 362.071 472.678 266.339C472.678 170.607 395.072 93.001 299.34 93.001C203.608 93.001 126.002 170.607 126.002 266.339C126.002 362.071 203.608 439.677 299.34 439.677Z" stroke="white" stroke-width="2"/>
</g>
</g>
<g filter="url(#filter2_d)">
<path d="M289.812 85.5002L308 54.0002L326.187 85.5002H289.812Z" stroke="white" stroke-opacity="0.6"/>
<path d="M289.812 106.5L308 75.0002L326.187 106.5H289.812Z" stroke="white" stroke-opacity="0.6"/>
<path d="M289.812 127.5L308 96.0002L326.187 127.5H289.812Z" stroke="white" stroke-opacity="0.6"/>
</g>
<g opacity="0.8">
<g opacity="0.8">
<path opacity="0.8" d="M83.5 57.0002C84.3284 57.0002 85 56.3287 85 55.5002C85 54.6718 84.3284 54.0002 83.5 54.0002C82.6716 54.0002 82 54.6718 82 55.5002C82 56.3287 82.6716 57.0002 83.5 57.0002Z" fill="#FF4C3B"/>
<path opacity="0.8" d="M92.5 57.0002C93.3284 57.0002 94 56.3287 94 55.5002C94 54.6718 93.3284 54.0002 92.5 54.0002C91.6716 54.0002 91 54.6718 91 55.5002C91 56.3287 91.6716 57.0002 92.5 57.0002Z" fill="#FF4C3B"/>
<path opacity="0.8" d="M101.5 57.0002C102.328 57.0002 103 56.3287 103 55.5002C103 54.6718 102.328 54.0002 101.5 54.0002C100.672 54.0002 100 54.6718 100 55.5002C100 56.3287 100.672 57.0002 101.5 57.0002Z" fill="#FF4C3B"/>
<path opacity="0.8" d="M110.5 57.0002C111.328 57.0002 112 56.3287 112 55.5002C112 54.6718 111.328 54.0002 110.5 54.0002C109.672 54.0002 109 54.6718 109 55.5002C109 56.3287 109.672 57.0002 110.5 57.0002Z" fill="#FF4C3B"/>
<path opacity="0.8" d="M119.5 57.0002C120.328 57.0002 121 56.3287 121 55.5002C121 54.6718 120.328 54.0002 119.5 54.0002C118.672 54.0002 118 54.6718 118 55.5002C118 56.3287 118.672 57.0002 119.5 57.0002Z" fill="#FF4C3B"/>
<path opacity="0.8" d="M128.5 57.0002C129.328 57.0002 130 56.3287 130 55.5002C130 54.6718 129.328 54.0002 128.5 54.0002C127.672 54.0002 127 54.6718 127 55.5002C127 56.3287 127.672 57.0002 128.5 57.0002Z" fill="#FF4C3B"/>
<path opacity="0.8" d="M137.5 57.0002C138.328 57.0002 139 56.3287 139 55.5002C139 54.6718 138.328 54.0002 137.5 54.0002C136.672 54.0002 136 54.6718 136 55.5002C136 56.3287 136.672 57.0002 137.5 57.0002Z" fill="#FF4C3B"/>
<path opacity="0.8" d="M146.5 57.0002C147.328 57.0002 148 56.3287 148 55.5002C148 54.6718 147.328 54.0002 146.5 54.0002C145.672 54.0002 145 54.6718 145 55.5002C145 56.3287 145.672 57.0002 146.5 57.0002Z" fill="#FF4C3B"/>
<path opacity="0.8" d="M155.5 57.0002C156.328 57.0002 157 56.3287 157 55.5002C157 54.6718 156.328 54.0002 155.5 54.0002C154.672 54.0002 154 54.6718 154 55.5002C154 56.3287 154.672 57.0002 155.5 57.0002Z" fill="#FF4C3B"/>
<path opacity="0.8" d="M164.5 57.0002C165.328 57.0002 166 56.3287 166 55.5002C166 54.6718 165.328 54.0002 164.5 54.0002C163.672 54.0002 163 54.6718 163 55.5002C163 56.3287 163.672 57.0002 164.5 57.0002Z" fill="#FF4C3B"/>
<path opacity="0.8" d="M173.5 57.0002C174.328 57.0002 175 56.3287 175 55.5002C175 54.6718 174.328 54.0002 173.5 54.0002C172.672 54.0002 172 54.6718 172 55.5002C172 56.3287 172.672 57.0002 173.5 57.0002Z" fill="#FF4C3B"/>
</g>
<g opacity="0.8">
<path opacity="0.8" d="M83.5 66.0002C84.3284 66.0002 85 65.3287 85 64.5002C85 63.6718 84.3284 63.0002 83.5 63.0002C82.6716 63.0002 82 63.6718 82 64.5002C82 65.3287 82.6716 66.0002 83.5 66.0002Z" fill="#FF4C3B"/>
<path opacity="0.8" d="M92.5 66.0002C93.3284 66.0002 94 65.3287 94 64.5002C94 63.6718 93.3284 63.0002 92.5 63.0002C91.6716 63.0002 91 63.6718 91 64.5002C91 65.3287 91.6716 66.0002 92.5 66.0002Z" fill="#FF4C3B"/>
<path opacity="0.8" d="M101.5 66.0002C102.328 66.0002 103 65.3287 103 64.5002C103 63.6718 102.328 63.0002 101.5 63.0002C100.672 63.0002 100 63.6718 100 64.5002C100 65.3287 100.672 66.0002 101.5 66.0002Z" fill="#FF4C3B"/>
<path opacity="0.8" d="M110.5 66.0002C111.328 66.0002 112 65.3287 112 64.5002C112 63.6718 111.328 63.0002 110.5 63.0002C109.672 63.0002 109 63.6718 109 64.5002C109 65.3287 109.672 66.0002 110.5 66.0002Z" fill="#FF4C3B"/>
<path opacity="0.8" d="M119.5 66.0002C120.328 66.0002 121 65.3287 121 64.5002C121 63.6718 120.328 63.0002 119.5 63.0002C118.672 63.0002 118 63.6718 118 64.5002C118 65.3287 118.672 66.0002 119.5 66.0002Z" fill="#FF4C3B"/>
<path opacity="0.8" d="M128.5 66.0002C129.328 66.0002 130 65.3287 130 64.5002C130 63.6718 129.328 63.0002 128.5 63.0002C127.672 63.0002 127 63.6718 127 64.5002C127 65.3287 127.672 66.0002 128.5 66.0002Z" fill="#FF4C3B"/>
<path opacity="0.8" d="M137.5 66.0002C138.328 66.0002 139 65.3287 139 64.5002C139 63.6718 138.328 63.0002 137.5 63.0002C136.672 63.0002 136 63.6718 136 64.5002C136 65.3287 136.672 66.0002 137.5 66.0002Z" fill="#FF4C3B"/>
<path opacity="0.8" d="M146.5 66.0002C147.328 66.0002 148 65.3287 148 64.5002C148 63.6718 147.328 63.0002 146.5 63.0002C145.672 63.0002 145 63.6718 145 64.5002C145 65.3287 145.672 66.0002 146.5 66.0002Z" fill="#FF4C3B"/>
<path opacity="0.8" d="M155.5 66.0002C156.328 66.0002 157 65.3287 157 64.5002C157 63.6718 156.328 63.0002 155.5 63.0002C154.672 63.0002 154 63.6718 154 64.5002C154 65.3287 154.672 66.0002 155.5 66.0002Z" fill="#FF4C3B"/>
<path opacity="0.8" d="M164.5 66.0002C165.328 66.0002 166 65.3287 166 64.5002C166 63.6718 165.328 63.0002 164.5 63.0002C163.672 63.0002 163 63.6718 163 64.5002C163 65.3287 163.672 66.0002 164.5 66.0002Z" fill="#FF4C3B"/>
<path opacity="0.8" d="M173.5 66.0002C174.328 66.0002 175 65.3287 175 64.5002C175 63.6718 174.328 63.0002 173.5 63.0002C172.672 63.0002 172 63.6718 172 64.5002C172 65.3287 172.672 66.0002 173.5 66.0002Z" fill="#FF4C3B"/>
</g>
<g opacity="0.8">
<path opacity="0.8" d="M83.5 75.0002C84.3284 75.0002 85 74.3287 85 73.5002C85 72.6718 84.3284 72.0002 83.5 72.0002C82.6716 72.0002 82 72.6718 82 73.5002C82 74.3287 82.6716 75.0002 83.5 75.0002Z" fill="#FF4C3B"/>
<path opacity="0.8" d="M92.5 75.0002C93.3284 75.0002 94 74.3287 94 73.5002C94 72.6718 93.3284 72.0002 92.5 72.0002C91.6716 72.0002 91 72.6718 91 73.5002C91 74.3287 91.6716 75.0002 92.5 75.0002Z" fill="#FF4C3B"/>
<path opacity="0.8" d="M101.5 75.0002C102.328 75.0002 103 74.3287 103 73.5002C103 72.6718 102.328 72.0002 101.5 72.0002C100.672 72.0002 100 72.6718 100 73.5002C100 74.3287 100.672 75.0002 101.5 75.0002Z" fill="#FF4C3B"/>
<path opacity="0.8" d="M110.5 75.0002C111.328 75.0002 112 74.3287 112 73.5002C112 72.6718 111.328 72.0002 110.5 72.0002C109.672 72.0002 109 72.6718 109 73.5002C109 74.3287 109.672 75.0002 110.5 75.0002Z" fill="#FF4C3B"/>
<path opacity="0.8" d="M119.5 75.0002C120.328 75.0002 121 74.3287 121 73.5002C121 72.6718 120.328 72.0002 119.5 72.0002C118.672 72.0002 118 72.6718 118 73.5002C118 74.3287 118.672 75.0002 119.5 75.0002Z" fill="#FF4C3B"/>
<path opacity="0.8" d="M128.5 75.0002C129.328 75.0002 130 74.3287 130 73.5002C130 72.6718 129.328 72.0002 128.5 72.0002C127.672 72.0002 127 72.6718 127 73.5002C127 74.3287 127.672 75.0002 128.5 75.0002Z" fill="#FF4C3B"/>
<path opacity="0.8" d="M137.5 75.0002C138.328 75.0002 139 74.3287 139 73.5002C139 72.6718 138.328 72.0002 137.5 72.0002C136.672 72.0002 136 72.6718 136 73.5002C136 74.3287 136.672 75.0002 137.5 75.0002Z" fill="#FF4C3B"/>
<path opacity="0.8" d="M146.5 75.0002C147.328 75.0002 148 74.3287 148 73.5002C148 72.6718 147.328 72.0002 146.5 72.0002C145.672 72.0002 145 72.6718 145 73.5002C145 74.3287 145.672 75.0002 146.5 75.0002Z" fill="#FF4C3B"/>
<path opacity="0.8" d="M155.5 75.0002C156.328 75.0002 157 74.3287 157 73.5002C157 72.6718 156.328 72.0002 155.5 72.0002C154.672 72.0002 154 72.6718 154 73.5002C154 74.3287 154.672 75.0002 155.5 75.0002Z" fill="#FF4C3B"/>
<path opacity="0.8" d="M164.5 75.0002C165.328 75.0002 166 74.3287 166 73.5002C166 72.6718 165.328 72.0002 164.5 72.0002C163.672 72.0002 163 72.6718 163 73.5002C163 74.3287 163.672 75.0002 164.5 75.0002Z" fill="#FF4C3B"/>
<path opacity="0.8" d="M173.5 75.0002C174.328 75.0002 175 74.3287 175 73.5002C175 72.6718 174.328 72.0002 173.5 72.0002C172.672 72.0002 172 72.6718 172 73.5002C172 74.3287 172.672 75.0002 173.5 75.0002Z" fill="#FF4C3B"/>
</g>
<g opacity="0.8">
<path opacity="0.8" d="M83.5 84.0002C84.3284 84.0002 85 83.3287 85 82.5002C85 81.6718 84.3284 81.0002 83.5 81.0002C82.6716 81.0002 82 81.6718 82 82.5002C82 83.3287 82.6716 84.0002 83.5 84.0002Z" fill="#FF4C3B"/>
<path opacity="0.8" d="M92.5 84.0002C93.3284 84.0002 94 83.3287 94 82.5002C94 81.6718 93.3284 81.0002 92.5 81.0002C91.6716 81.0002 91 81.6718 91 82.5002C91 83.3287 91.6716 84.0002 92.5 84.0002Z" fill="#FF4C3B"/>
<path opacity="0.8" d="M101.5 84.0002C102.328 84.0002 103 83.3287 103 82.5002C103 81.6718 102.328 81.0002 101.5 81.0002C100.672 81.0002 100 81.6718 100 82.5002C100 83.3287 100.672 84.0002 101.5 84.0002Z" fill="#FF4C3B"/>
<path opacity="0.8" d="M110.5 84.0002C111.328 84.0002 112 83.3287 112 82.5002C112 81.6718 111.328 81.0002 110.5 81.0002C109.672 81.0002 109 81.6718 109 82.5002C109 83.3287 109.672 84.0002 110.5 84.0002Z" fill="#FF4C3B"/>
<path opacity="0.8" d="M119.5 84.0002C120.328 84.0002 121 83.3287 121 82.5002C121 81.6718 120.328 81.0002 119.5 81.0002C118.672 81.0002 118 81.6718 118 82.5002C118 83.3287 118.672 84.0002 119.5 84.0002Z" fill="#FF4C3B"/>
<path opacity="0.8" d="M128.5 84.0002C129.328 84.0002 130 83.3287 130 82.5002C130 81.6718 129.328 81.0002 128.5 81.0002C127.672 81.0002 127 81.6718 127 82.5002C127 83.3287 127.672 84.0002 128.5 84.0002Z" fill="#FF4C3B"/>
<path opacity="0.8" d="M137.5 84.0002C138.328 84.0002 139 83.3287 139 82.5002C139 81.6718 138.328 81.0002 137.5 81.0002C136.672 81.0002 136 81.6718 136 82.5002C136 83.3287 136.672 84.0002 137.5 84.0002Z" fill="#FF4C3B"/>
<path opacity="0.8" d="M146.5 84.0002C147.328 84.0002 148 83.3287 148 82.5002C148 81.6718 147.328 81.0002 146.5 81.0002C145.672 81.0002 145 81.6718 145 82.5002C145 83.3287 145.672 84.0002 146.5 84.0002Z" fill="#FF4C3B"/>
<path opacity="0.8" d="M155.5 84.0002C156.328 84.0002 157 83.3287 157 82.5002C157 81.6718 156.328 81.0002 155.5 81.0002C154.672 81.0002 154 81.6718 154 82.5002C154 83.3287 154.672 84.0002 155.5 84.0002Z" fill="#FF4C3B"/>
<path opacity="0.8" d="M164.5 84.0002C165.328 84.0002 166 83.3287 166 82.5002C166 81.6718 165.328 81.0002 164.5 81.0002C163.672 81.0002 163 81.6718 163 82.5002C163 83.3287 163.672 84.0002 164.5 84.0002Z" fill="#FF4C3B"/>
<path opacity="0.8" d="M173.5 84.0002C174.328 84.0002 175 83.3287 175 82.5002C175 81.6718 174.328 81.0002 173.5 81.0002C172.672 81.0002 172 81.6718 172 82.5002C172 83.3287 172.672 84.0002 173.5 84.0002Z" fill="#FF4C3B"/>
</g>
<g opacity="0.8">
<path opacity="0.8" d="M83.5 93.0002C84.3284 93.0002 85 92.3287 85 91.5002C85 90.6718 84.3284 90.0002 83.5 90.0002C82.6716 90.0002 82 90.6718 82 91.5002C82 92.3287 82.6716 93.0002 83.5 93.0002Z" fill="#FF4C3B"/>
<path opacity="0.8" d="M92.5 93.0002C93.3284 93.0002 94 92.3287 94 91.5002C94 90.6718 93.3284 90.0002 92.5 90.0002C91.6716 90.0002 91 90.6718 91 91.5002C91 92.3287 91.6716 93.0002 92.5 93.0002Z" fill="#FF4C3B"/>
<path opacity="0.8" d="M101.5 93.0002C102.328 93.0002 103 92.3287 103 91.5002C103 90.6718 102.328 90.0002 101.5 90.0002C100.672 90.0002 100 90.6718 100 91.5002C100 92.3287 100.672 93.0002 101.5 93.0002Z" fill="#FF4C3B"/>
<path opacity="0.8" d="M110.5 93.0002C111.328 93.0002 112 92.3287 112 91.5002C112 90.6718 111.328 90.0002 110.5 90.0002C109.672 90.0002 109 90.6718 109 91.5002C109 92.3287 109.672 93.0002 110.5 93.0002Z" fill="#FF4C3B"/>
<path opacity="0.8" d="M119.5 93.0002C120.328 93.0002 121 92.3287 121 91.5002C121 90.6718 120.328 90.0002 119.5 90.0002C118.672 90.0002 118 90.6718 118 91.5002C118 92.3287 118.672 93.0002 119.5 93.0002Z" fill="#FF4C3B"/>
<path opacity="0.8" d="M128.5 93.0002C129.328 93.0002 130 92.3287 130 91.5002C130 90.6718 129.328 90.0002 128.5 90.0002C127.672 90.0002 127 90.6718 127 91.5002C127 92.3287 127.672 93.0002 128.5 93.0002Z" fill="#FF4C3B"/>
<path opacity="0.8" d="M137.5 93.0002C138.328 93.0002 139 92.3287 139 91.5002C139 90.6718 138.328 90.0002 137.5 90.0002C136.672 90.0002 136 90.6718 136 91.5002C136 92.3287 136.672 93.0002 137.5 93.0002Z" fill="#FF4C3B"/>
<path opacity="0.8" d="M146.5 93.0002C147.328 93.0002 148 92.3287 148 91.5002C148 90.6718 147.328 90.0002 146.5 90.0002C145.672 90.0002 145 90.6718 145 91.5002C145 92.3287 145.672 93.0002 146.5 93.0002Z" fill="#FF4C3B"/>
<path opacity="0.8" d="M155.5 93.0002C156.328 93.0002 157 92.3287 157 91.5002C157 90.6718 156.328 90.0002 155.5 90.0002C154.672 90.0002 154 90.6718 154 91.5002C154 92.3287 154.672 93.0002 155.5 93.0002Z" fill="#FF4C3B"/>
<path opacity="0.8" d="M164.5 93.0002C165.328 93.0002 166 92.3287 166 91.5002C166 90.6718 165.328 90.0002 164.5 90.0002C163.672 90.0002 163 90.6718 163 91.5002C163 92.3287 163.672 93.0002 164.5 93.0002Z" fill="#FF4C3B"/>
<path opacity="0.8" d="M173.5 93.0002C174.328 93.0002 175 92.3287 175 91.5002C175 90.6718 174.328 90.0002 173.5 90.0002C172.672 90.0002 172 90.6718 172 91.5002C172 92.3287 172.672 93.0002 173.5 93.0002Z" fill="#FF4C3B"/>
</g>
<g opacity="0.8">
<path opacity="0.8" d="M83.5 102C84.3284 102 85 101.329 85 100.5C85 99.6718 84.3284 99.0002 83.5 99.0002C82.6716 99.0002 82 99.6718 82 100.5C82 101.329 82.6716 102 83.5 102Z" fill="#FF4C3B"/>
<path opacity="0.8" d="M92.5 102C93.3284 102 94 101.329 94 100.5C94 99.6718 93.3284 99.0002 92.5 99.0002C91.6716 99.0002 91 99.6718 91 100.5C91 101.329 91.6716 102 92.5 102Z" fill="#FF4C3B"/>
<path opacity="0.8" d="M101.5 102C102.328 102 103 101.329 103 100.5C103 99.6718 102.328 99.0002 101.5 99.0002C100.672 99.0002 100 99.6718 100 100.5C100 101.329 100.672 102 101.5 102Z" fill="#FF4C3B"/>
<path opacity="0.8" d="M110.5 102C111.328 102 112 101.329 112 100.5C112 99.6718 111.328 99.0002 110.5 99.0002C109.672 99.0002 109 99.6718 109 100.5C109 101.329 109.672 102 110.5 102Z" fill="#FF4C3B"/>
<path opacity="0.8" d="M119.5 102C120.328 102 121 101.329 121 100.5C121 99.6718 120.328 99.0002 119.5 99.0002C118.672 99.0002 118 99.6718 118 100.5C118 101.329 118.672 102 119.5 102Z" fill="#FF4C3B"/>
<path opacity="0.8" d="M128.5 102C129.328 102 130 101.329 130 100.5C130 99.6718 129.328 99.0002 128.5 99.0002C127.672 99.0002 127 99.6718 127 100.5C127 101.329 127.672 102 128.5 102Z" fill="#FF4C3B"/>
<path opacity="0.8" d="M137.5 102C138.328 102 139 101.329 139 100.5C139 99.6718 138.328 99.0002 137.5 99.0002C136.672 99.0002 136 99.6718 136 100.5C136 101.329 136.672 102 137.5 102Z" fill="#FF4C3B"/>
<path opacity="0.8" d="M146.5 102C147.328 102 148 101.329 148 100.5C148 99.6718 147.328 99.0002 146.5 99.0002C145.672 99.0002 145 99.6718 145 100.5C145 101.329 145.672 102 146.5 102Z" fill="#FF4C3B"/>
<path opacity="0.8" d="M155.5 102C156.328 102 157 101.329 157 100.5C157 99.6718 156.328 99.0002 155.5 99.0002C154.672 99.0002 154 99.6718 154 100.5C154 101.329 154.672 102 155.5 102Z" fill="#FF4C3B"/>
<path opacity="0.8" d="M164.5 102C165.328 102 166 101.329 166 100.5C166 99.6718 165.328 99.0002 164.5 99.0002C163.672 99.0002 163 99.6718 163 100.5C163 101.329 163.672 102 164.5 102Z" fill="#FF4C3B"/>
<path opacity="0.8" d="M173.5 102C174.328 102 175 101.329 175 100.5C175 99.6718 174.328 99.0002 173.5 99.0002C172.672 99.0002 172 99.6718 172 100.5C172 101.329 172.672 102 173.5 102Z" fill="#FF4C3B"/>
</g>
<g opacity="0.8">
<path opacity="0.8" d="M83.5 111C84.3284 111 85 110.329 85 109.5C85 108.672 84.3284 108 83.5 108C82.6716 108 82 108.672 82 109.5C82 110.329 82.6716 111 83.5 111Z" fill="#FF4C3B"/>
<path opacity="0.8" d="M92.5 111C93.3284 111 94 110.329 94 109.5C94 108.672 93.3284 108 92.5 108C91.6716 108 91 108.672 91 109.5C91 110.329 91.6716 111 92.5 111Z" fill="#FF4C3B"/>
<path opacity="0.8" d="M101.5 111C102.328 111 103 110.329 103 109.5C103 108.672 102.328 108 101.5 108C100.672 108 100 108.672 100 109.5C100 110.329 100.672 111 101.5 111Z" fill="#FF4C3B"/>
<path opacity="0.8" d="M110.5 111C111.328 111 112 110.329 112 109.5C112 108.672 111.328 108 110.5 108C109.672 108 109 108.672 109 109.5C109 110.329 109.672 111 110.5 111Z" fill="#FF4C3B"/>
<path opacity="0.8" d="M119.5 111C120.328 111 121 110.329 121 109.5C121 108.672 120.328 108 119.5 108C118.672 108 118 108.672 118 109.5C118 110.329 118.672 111 119.5 111Z" fill="#FF4C3B"/>
<path opacity="0.8" d="M128.5 111C129.328 111 130 110.329 130 109.5C130 108.672 129.328 108 128.5 108C127.672 108 127 108.672 127 109.5C127 110.329 127.672 111 128.5 111Z" fill="#FF4C3B"/>
<path opacity="0.8" d="M137.5 111C138.328 111 139 110.329 139 109.5C139 108.672 138.328 108 137.5 108C136.672 108 136 108.672 136 109.5C136 110.329 136.672 111 137.5 111Z" fill="#FF4C3B"/>
<path opacity="0.8" d="M146.5 111C147.328 111 148 110.329 148 109.5C148 108.672 147.328 108 146.5 108C145.672 108 145 108.672 145 109.5C145 110.329 145.672 111 146.5 111Z" fill="#FF4C3B"/>
<path opacity="0.8" d="M155.5 111C156.328 111 157 110.329 157 109.5C157 108.672 156.328 108 155.5 108C154.672 108 154 108.672 154 109.5C154 110.329 154.672 111 155.5 111Z" fill="#FF4C3B"/>
<path opacity="0.8" d="M164.5 111C165.328 111 166 110.329 166 109.5C166 108.672 165.328 108 164.5 108C163.672 108 163 108.672 163 109.5C163 110.329 163.672 111 164.5 111Z" fill="#FF4C3B"/>
<path opacity="0.8" d="M173.5 111C174.328 111 175 110.329 175 109.5C175 108.672 174.328 108 173.5 108C172.672 108 172 108.672 172 109.5C172 110.329 172.672 111 173.5 111Z" fill="#FF4C3B"/>
</g>
<g opacity="0.8">
<path opacity="0.8" d="M83.5 120C84.3284 120 85 119.329 85 118.5C85 117.672 84.3284 117 83.5 117C82.6716 117 82 117.672 82 118.5C82 119.329 82.6716 120 83.5 120Z" fill="#FF4C3B"/>
<path opacity="0.8" d="M92.5 120C93.3284 120 94 119.329 94 118.5C94 117.672 93.3284 117 92.5 117C91.6716 117 91 117.672 91 118.5C91 119.329 91.6716 120 92.5 120Z" fill="#FF4C3B"/>
<path opacity="0.8" d="M101.5 120C102.328 120 103 119.329 103 118.5C103 117.672 102.328 117 101.5 117C100.672 117 100 117.672 100 118.5C100 119.329 100.672 120 101.5 120Z" fill="#FF4C3B"/>
<path opacity="0.8" d="M110.5 120C111.328 120 112 119.329 112 118.5C112 117.672 111.328 117 110.5 117C109.672 117 109 117.672 109 118.5C109 119.329 109.672 120 110.5 120Z" fill="#FF4C3B"/>
<path opacity="0.8" d="M119.5 120C120.328 120 121 119.329 121 118.5C121 117.672 120.328 117 119.5 117C118.672 117 118 117.672 118 118.5C118 119.329 118.672 120 119.5 120Z" fill="#FF4C3B"/>
<path opacity="0.8" d="M128.5 120C129.328 120 130 119.329 130 118.5C130 117.672 129.328 117 128.5 117C127.672 117 127 117.672 127 118.5C127 119.329 127.672 120 128.5 120Z" fill="#FF4C3B"/>
<path opacity="0.8" d="M137.5 120C138.328 120 139 119.329 139 118.5C139 117.672 138.328 117 137.5 117C136.672 117 136 117.672 136 118.5C136 119.329 136.672 120 137.5 120Z" fill="#FF4C3B"/>
<path opacity="0.8" d="M146.5 120C147.328 120 148 119.329 148 118.5C148 117.672 147.328 117 146.5 117C145.672 117 145 117.672 145 118.5C145 119.329 145.672 120 146.5 120Z" fill="#FF4C3B"/>
<path opacity="0.8" d="M155.5 120C156.328 120 157 119.329 157 118.5C157 117.672 156.328 117 155.5 117C154.672 117 154 117.672 154 118.5C154 119.329 154.672 120 155.5 120Z" fill="#FF4C3B"/>
<path opacity="0.8" d="M164.5 120C165.328 120 166 119.329 166 118.5C166 117.672 165.328 117 164.5 117C163.672 117 163 117.672 163 118.5C163 119.329 163.672 120 164.5 120Z" fill="#FF4C3B"/>
<path opacity="0.8" d="M173.5 120C174.328 120 175 119.329 175 118.5C175 117.672 174.328 117 173.5 117C172.672 117 172 117.672 172 118.5C172 119.329 172.672 120 173.5 120Z" fill="#FF4C3B"/>
</g>
<g opacity="0.8">
<path opacity="0.8" d="M83.5 129C84.3284 129 85 128.328 85 127.5C85 126.672 84.3284 126 83.5 126C82.6716 126 82 126.672 82 127.5C82 128.328 82.6716 129 83.5 129Z" fill="#FF4C3B"/>
<path opacity="0.8" d="M92.5 129C93.3284 129 94 128.328 94 127.5C94 126.672 93.3284 126 92.5 126C91.6716 126 91 126.672 91 127.5C91 128.328 91.6716 129 92.5 129Z" fill="#FF4C3B"/>
<path opacity="0.8" d="M101.5 129C102.328 129 103 128.328 103 127.5C103 126.672 102.328 126 101.5 126C100.672 126 100 126.672 100 127.5C100 128.328 100.672 129 101.5 129Z" fill="#FF4C3B"/>
<path opacity="0.8" d="M110.5 129C111.328 129 112 128.328 112 127.5C112 126.672 111.328 126 110.5 126C109.672 126 109 126.672 109 127.5C109 128.328 109.672 129 110.5 129Z" fill="#FF4C3B"/>
<path opacity="0.8" d="M119.5 129C120.328 129 121 128.328 121 127.5C121 126.672 120.328 126 119.5 126C118.672 126 118 126.672 118 127.5C118 128.328 118.672 129 119.5 129Z" fill="#FF4C3B"/>
<path opacity="0.8" d="M128.5 129C129.328 129 130 128.328 130 127.5C130 126.672 129.328 126 128.5 126C127.672 126 127 126.672 127 127.5C127 128.328 127.672 129 128.5 129Z" fill="#FF4C3B"/>
<path opacity="0.8" d="M137.5 129C138.328 129 139 128.328 139 127.5C139 126.672 138.328 126 137.5 126C136.672 126 136 126.672 136 127.5C136 128.328 136.672 129 137.5 129Z" fill="#FF4C3B"/>
<path opacity="0.8" d="M146.5 129C147.328 129 148 128.328 148 127.5C148 126.672 147.328 126 146.5 126C145.672 126 145 126.672 145 127.5C145 128.328 145.672 129 146.5 129Z" fill="#FF4C3B"/>
<path opacity="0.8" d="M155.5 129C156.328 129 157 128.328 157 127.5C157 126.672 156.328 126 155.5 126C154.672 126 154 126.672 154 127.5C154 128.328 154.672 129 155.5 129Z" fill="#FF4C3B"/>
<path opacity="0.8" d="M164.5 129C165.328 129 166 128.328 166 127.5C166 126.672 165.328 126 164.5 126C163.672 126 163 126.672 163 127.5C163 128.328 163.672 129 164.5 129Z" fill="#FF4C3B"/>
<path opacity="0.8" d="M173.5 129C174.328 129 175 128.328 175 127.5C175 126.672 174.328 126 173.5 126C172.672 126 172 126.672 172 127.5C172 128.328 172.672 129 173.5 129Z" fill="#FF4C3B"/>
</g>
<g opacity="0.8">
<path opacity="0.8" d="M83.5 138C84.3284 138 85 137.328 85 136.5C85 135.672 84.3284 135 83.5 135C82.6716 135 82 135.672 82 136.5C82 137.328 82.6716 138 83.5 138Z" fill="#FF4C3B"/>
<path opacity="0.8" d="M92.5 138C93.3284 138 94 137.328 94 136.5C94 135.672 93.3284 135 92.5 135C91.6716 135 91 135.672 91 136.5C91 137.328 91.6716 138 92.5 138Z" fill="#FF4C3B"/>
<path opacity="0.8" d="M101.5 138C102.328 138 103 137.328 103 136.5C103 135.672 102.328 135 101.5 135C100.672 135 100 135.672 100 136.5C100 137.328 100.672 138 101.5 138Z" fill="#FF4C3B"/>
<path opacity="0.8" d="M110.5 138C111.328 138 112 137.328 112 136.5C112 135.672 111.328 135 110.5 135C109.672 135 109 135.672 109 136.5C109 137.328 109.672 138 110.5 138Z" fill="#FF4C3B"/>
<path opacity="0.8" d="M119.5 138C120.328 138 121 137.328 121 136.5C121 135.672 120.328 135 119.5 135C118.672 135 118 135.672 118 136.5C118 137.328 118.672 138 119.5 138Z" fill="#FF4C3B"/>
<path opacity="0.8" d="M128.5 138C129.328 138 130 137.328 130 136.5C130 135.672 129.328 135 128.5 135C127.672 135 127 135.672 127 136.5C127 137.328 127.672 138 128.5 138Z" fill="#FF4C3B"/>
<path opacity="0.8" d="M137.5 138C138.328 138 139 137.328 139 136.5C139 135.672 138.328 135 137.5 135C136.672 135 136 135.672 136 136.5C136 137.328 136.672 138 137.5 138Z" fill="#FF4C3B"/>
<path opacity="0.8" d="M146.5 138C147.328 138 148 137.328 148 136.5C148 135.672 147.328 135 146.5 135C145.672 135 145 135.672 145 136.5C145 137.328 145.672 138 146.5 138Z" fill="#FF4C3B"/>
<path opacity="0.8" d="M155.5 138C156.328 138 157 137.328 157 136.5C157 135.672 156.328 135 155.5 135C154.672 135 154 135.672 154 136.5C154 137.328 154.672 138 155.5 138Z" fill="#FF4C3B"/>
<path opacity="0.8" d="M164.5 138C165.328 138 166 137.328 166 136.5C166 135.672 165.328 135 164.5 135C163.672 135 163 135.672 163 136.5C163 137.328 163.672 138 164.5 138Z" fill="#FF4C3B"/>
<path opacity="0.8" d="M173.5 138C174.328 138 175 137.328 175 136.5C175 135.672 174.328 135 173.5 135C172.672 135 172 135.672 172 136.5C172 137.328 172.672 138 173.5 138Z" fill="#FF4C3B"/>
</g>
<g opacity="0.8">
<path opacity="0.8" d="M83.5 147C84.3284 147 85 146.328 85 145.5C85 144.672 84.3284 144 83.5 144C82.6716 144 82 144.672 82 145.5C82 146.328 82.6716 147 83.5 147Z" fill="#FF4C3B"/>
<path opacity="0.8" d="M92.5 147C93.3284 147 94 146.328 94 145.5C94 144.672 93.3284 144 92.5 144C91.6716 144 91 144.672 91 145.5C91 146.328 91.6716 147 92.5 147Z" fill="#FF4C3B"/>
<path opacity="0.8" d="M101.5 147C102.328 147 103 146.328 103 145.5C103 144.672 102.328 144 101.5 144C100.672 144 100 144.672 100 145.5C100 146.328 100.672 147 101.5 147Z" fill="#FF4C3B"/>
<path opacity="0.8" d="M110.5 147C111.328 147 112 146.328 112 145.5C112 144.672 111.328 144 110.5 144C109.672 144 109 144.672 109 145.5C109 146.328 109.672 147 110.5 147Z" fill="#FF4C3B"/>
<path opacity="0.8" d="M119.5 147C120.328 147 121 146.328 121 145.5C121 144.672 120.328 144 119.5 144C118.672 144 118 144.672 118 145.5C118 146.328 118.672 147 119.5 147Z" fill="#FF4C3B"/>
<path opacity="0.8" d="M128.5 147C129.328 147 130 146.328 130 145.5C130 144.672 129.328 144 128.5 144C127.672 144 127 144.672 127 145.5C127 146.328 127.672 147 128.5 147Z" fill="#FF4C3B"/>
<path opacity="0.8" d="M137.5 147C138.328 147 139 146.328 139 145.5C139 144.672 138.328 144 137.5 144C136.672 144 136 144.672 136 145.5C136 146.328 136.672 147 137.5 147Z" fill="#FF4C3B"/>
<path opacity="0.8" d="M146.5 147C147.328 147 148 146.328 148 145.5C148 144.672 147.328 144 146.5 144C145.672 144 145 144.672 145 145.5C145 146.328 145.672 147 146.5 147Z" fill="#FF4C3B"/>
<path opacity="0.8" d="M155.5 147C156.328 147 157 146.328 157 145.5C157 144.672 156.328 144 155.5 144C154.672 144 154 144.672 154 145.5C154 146.328 154.672 147 155.5 147Z" fill="#FF4C3B"/>
<path opacity="0.8" d="M164.5 147C165.328 147 166 146.328 166 145.5C166 144.672 165.328 144 164.5 144C163.672 144 163 144.672 163 145.5C163 146.328 163.672 147 164.5 147Z" fill="#FF4C3B"/>
<path opacity="0.8" d="M173.5 147C174.328 147 175 146.328 175 145.5C175 144.672 174.328 144 173.5 144C172.672 144 172 144.672 172 145.5C172 146.328 172.672 147 173.5 147Z" fill="#FF4C3B"/>
</g>
</g>
<path opacity="0.3" d="M133.5 222C165.809 222 192 195.809 192 163.5C192 131.191 165.809 105 133.5 105C101.191 105 75 131.191 75 163.5C75 195.809 101.191 222 133.5 222Z" fill="url(#paint1_linear)"/>
<defs>
<filter id="filter0_d" x="0" y="0" width="549" height="549" filterUnits="userSpaceOnUse" color-interpolation-filters="sRGB">
<feFlood flood-opacity="0" result="BackgroundImageFix"/>
<feColorMatrix in="SourceAlpha" type="matrix" values="0 0 0 0 0 0 0 0 0 0 0 0 0 0 0 0 0 0 127 0"/>
<feOffset dy="4"/>
<feGaussianBlur stdDeviation="12"/>
<feColorMatrix type="matrix" values="0 0 0 0 0.901961 0 0 0 0 0 0 0 0 0 0.478431 0 0 0 0.2 0"/>
<feBlend mode="normal" in2="BackgroundImageFix" result="effect1_dropShadow"/>
<feBlend mode="normal" in="SourceGraphic" in2="effect1_dropShadow" result="shape"/>
</filter>
<filter id="filter1_d" x="101.002" y="72.001" width="396.676" height="396.676" filterUnits="userSpaceOnUse" color-interpolation-filters="sRGB">
<feFlood flood-opacity="0" result="BackgroundImageFix"/>
<feColorMatrix in="SourceAlpha" type="matrix" values="0 0 0 0 0 0 0 0 0 0 0 0 0 0 0 0 0 0 127 0"/>
<feOffset dy="4"/>
<feGaussianBlur stdDeviation="12"/>
<feColorMatrix type="matrix" values="0 0 0 0 0.901961 0 0 0 0 0 0 0 0 0 0.478431 0 0 0 0.2 0"/>
<feBlend mode="normal" in2="BackgroundImageFix" result="effect1_dropShadow"/>
<feBlend mode="normal" in="SourceGraphic" in2="effect1_dropShadow" result="shape"/>
</filter>
<filter id="filter2_d" x="280.947" y="47.0002" width="58.1061" height="94.9998" filterUnits="userSpaceOnUse" color-interpolation-filters="sRGB">
<feFlood flood-opacity="0" result="BackgroundImageFix"/>
<feColorMatrix in="SourceAlpha" type="matrix" values="0 0 0 0 0 0 0 0 0 0 0 0 0 0 0 0 0 0 127 0"/>
<feOffset dx="2" dy="4"/>
<feGaussianBlur stdDeviation="5"/>
<feColorMatrix type="matrix" values="0 0 0 0 0.8 0 0 0 0 0.183333 0 0 0 0 0.183333 0 0 0 0.2 0"/>
<feBlend mode="normal" in2="BackgroundImageFix" result="effect1_dropShadow"/>
<feBlend mode="normal" in="SourceGraphic" in2="effect1_dropShadow" result="shape"/>
</filter>
<linearGradient id="paint0_linear" x1="310.172" y1="430.652" x2="307.709" y2="105.232" gradientUnits="userSpaceOnUse">
<stop stop-color="white"/>
<stop offset="1" stop-color="white" stop-opacity="0"/>
</linearGradient>
<linearGradient id="paint1_linear" x1="133.5" y1="105" x2="134" y2="232" gradientUnits="userSpaceOnUse">
<stop stop-color="white"/>
<stop offset="1" stop-color="white" stop-opacity="0"/>
</linearGradient>
</defs>
</svg>
