<svg width="105" height="232" viewBox="0 0 105 232" fill="none" xmlns="http://www.w3.org/2000/svg">
<path opacity="0.4" d="M-110.5 377C-6.39438 377 78 292.606 78 188.5C78 84.3944 -6.39438 0 -110.5 0C-214.606 0 -299 84.3944 -299 188.5C-299 292.606 -214.606 377 -110.5 377Z" fill="url(#paint0_linear)"/>
<g clip-path="url(#clip0)">
<circle cx="-0.5" cy="17.5" r="1.5" fill="#FF4C3B"/>
<circle cx="8.5" cy="17.5" r="1.5" fill="#FF4C3B"/>
<circle cx="17.5" cy="17.5" r="1.5" fill="#FF4C3B"/>
<circle cx="26.5" cy="17.5" r="1.5" fill="#FF4C3B"/>
<circle cx="35.5" cy="17.5" r="1.5" fill="#FF4C3B"/>
<circle cx="44.5" cy="17.5" r="1.5" fill="#FF4C3B"/>
<circle cx="53.5" cy="17.5" r="1.5" fill="#FF4C3B"/>
<circle cx="62.5" cy="17.5" r="1.5" fill="#FF4C3B"/>
<circle cx="-0.5" cy="26.5" r="1.5" fill="#FF4C3B"/>
<circle cx="8.5" cy="26.5" r="1.5" fill="#FF4C3B"/>
<circle cx="17.5" cy="26.5" r="1.5" fill="#FF4C3B"/>
<circle cx="26.5" cy="26.5" r="1.5" fill="#FF4C3B"/>
<circle cx="35.5" cy="26.5" r="1.5" fill="#FF4C3B"/>
<circle cx="44.5" cy="26.5" r="1.5" fill="#FF4C3B"/>
<circle cx="53.5" cy="26.5" r="1.5" fill="#FF4C3B"/>
<circle cx="62.5" cy="26.5" r="1.5" fill="#FF4C3B"/>
<circle cx="-0.5" cy="35.5" r="1.5" fill="#FF4C3B"/>
<circle cx="8.5" cy="35.5" r="1.5" fill="#FF4C3B"/>
<circle cx="17.5" cy="35.5" r="1.5" fill="#FF4C3B"/>
<circle cx="26.5" cy="35.5" r="1.5" fill="#FF4C3B"/>
<circle cx="35.5" cy="35.5" r="1.5" fill="#FF4C3B"/>
<circle cx="44.5" cy="35.5" r="1.5" fill="#FF4C3B"/>
<circle cx="53.5" cy="35.5" r="1.5" fill="#FF4C3B"/>
<circle cx="62.5" cy="35.5" r="1.5" fill="#FF4C3B"/>
<circle cx="-0.5" cy="44.5" r="1.5" fill="#FF4C3B"/>
<circle cx="8.5" cy="44.5" r="1.5" fill="#FF4C3B"/>
<circle cx="17.5" cy="44.5" r="1.5" fill="#FF4C3B"/>
<circle cx="26.5" cy="44.5" r="1.5" fill="#FF4C3B"/>
<circle cx="35.5" cy="44.5" r="1.5" fill="#FF4C3B"/>
<circle cx="44.5" cy="44.5" r="1.5" fill="#FF4C3B"/>
<circle cx="53.5" cy="44.5" r="1.5" fill="#FF4C3B"/>
<circle cx="62.5" cy="44.5" r="1.5" fill="#FF4C3B"/>
<circle cx="-0.5" cy="53.5" r="1.5" fill="#FF4C3B"/>
<circle cx="8.5" cy="53.5" r="1.5" fill="#FF4C3B"/>
<circle cx="17.5" cy="53.5" r="1.5" fill="#FF4C3B"/>
<circle cx="26.5" cy="53.5" r="1.5" fill="#FF4C3B"/>
<circle cx="35.5" cy="53.5" r="1.5" fill="#FF4C3B"/>
<circle cx="44.5" cy="53.5" r="1.5" fill="#FF4C3B"/>
<circle cx="53.5" cy="53.5" r="1.5" fill="#FF4C3B"/>
<circle cx="62.5" cy="53.5" r="1.5" fill="#FF4C3B"/>
<circle cx="-0.5" cy="62.5" r="1.5" fill="#FF4C3B"/>
<circle cx="8.5" cy="62.5" r="1.5" fill="#FF4C3B"/>
<circle cx="17.5" cy="62.5" r="1.5" fill="#FF4C3B"/>
<circle cx="26.5" cy="62.5" r="1.5" fill="#FF4C3B"/>
<circle cx="35.5" cy="62.5" r="1.5" fill="#FF4C3B"/>
<circle cx="44.5" cy="62.5" r="1.5" fill="#FF4C3B"/>
<circle cx="53.5" cy="62.5" r="1.5" fill="#FF4C3B"/>
<circle cx="62.5" cy="62.5" r="1.5" fill="#FF4C3B"/>
<circle cx="-0.5" cy="71.5" r="1.5" fill="#FF4C3B"/>
<circle cx="8.5" cy="71.5" r="1.5" fill="#FF4C3B"/>
<circle cx="17.5" cy="71.5" r="1.5" fill="#FF4C3B"/>
<circle cx="26.5" cy="71.5" r="1.5" fill="#FF4C3B"/>
<circle cx="35.5" cy="71.5" r="1.5" fill="#FF4C3B"/>
<circle cx="44.5" cy="71.5" r="1.5" fill="#FF4C3B"/>
<circle cx="53.5" cy="71.5" r="1.5" fill="#FF4C3B"/>
<circle cx="62.5" cy="71.5" r="1.5" fill="#FF4C3B"/>
<circle cx="-0.5" cy="80.5" r="1.5" fill="#FF4C3B"/>
<circle cx="8.5" cy="80.5" r="1.5" fill="#FF4C3B"/>
<circle cx="17.5" cy="80.5" r="1.5" fill="#FF4C3B"/>
<circle cx="26.5" cy="80.5" r="1.5" fill="#FF4C3B"/>
<circle cx="35.5" cy="80.5" r="1.5" fill="#FF4C3B"/>
<circle cx="44.5" cy="80.5" r="1.5" fill="#FF4C3B"/>
<circle cx="53.5" cy="80.5" r="1.5" fill="#FF4C3B"/>
<circle cx="62.5" cy="80.5" r="1.5" fill="#FF4C3B"/>
<circle cx="-0.5" cy="89.5" r="1.5" fill="#FF4C3B"/>
<circle cx="8.5" cy="89.5" r="1.5" fill="#FF4C3B"/>
<circle cx="17.5" cy="89.5" r="1.5" fill="#FF4C3B"/>
<circle cx="26.5" cy="89.5" r="1.5" fill="#FF4C3B"/>
<circle cx="35.5" cy="89.5" r="1.5" fill="#FF4C3B"/>
<circle cx="44.5" cy="89.5" r="1.5" fill="#FF4C3B"/>
<circle cx="53.5" cy="89.5" r="1.5" fill="#FF4C3B"/>
<circle cx="62.5" cy="89.5" r="1.5" fill="#FF4C3B"/>
<circle cx="-0.5" cy="98.5" r="1.5" fill="#FF4C3B"/>
<circle cx="8.5" cy="98.5" r="1.5" fill="#FF4C3B"/>
<circle cx="17.5" cy="98.5" r="1.5" fill="#FF4C3B"/>
<circle cx="26.5" cy="98.5" r="1.5" fill="#FF4C3B"/>
<circle cx="35.5" cy="98.5" r="1.5" fill="#FF4C3B"/>
<circle cx="44.5" cy="98.5" r="1.5" fill="#FF4C3B"/>
<circle cx="53.5" cy="98.5" r="1.5" fill="#FF4C3B"/>
<circle cx="62.5" cy="98.5" r="1.5" fill="#FF4C3B"/>
<circle cx="-0.5" cy="107.5" r="1.5" fill="#FF4C3B"/>
<circle cx="8.5" cy="107.5" r="1.5" fill="#FF4C3B"/>
<circle cx="17.5" cy="107.5" r="1.5" fill="#FF4C3B"/>
<circle cx="26.5" cy="107.5" r="1.5" fill="#FF4C3B"/>
<circle cx="35.5" cy="107.5" r="1.5" fill="#FF4C3B"/>
<circle cx="44.5" cy="107.5" r="1.5" fill="#FF4C3B"/>
<circle cx="53.5" cy="107.5" r="1.5" fill="#FF4C3B"/>
<circle cx="62.5" cy="107.5" r="1.5" fill="#FF4C3B"/>
<circle cx="-0.5" cy="116.5" r="1.5" fill="#FF4C3B"/>
<circle cx="8.5" cy="116.5" r="1.5" fill="#FF4C3B"/>
<circle cx="17.5" cy="116.5" r="1.5" fill="#FF4C3B"/>
<circle cx="26.5" cy="116.5" r="1.5" fill="#FF4C3B"/>
<circle cx="35.5" cy="116.5" r="1.5" fill="#FF4C3B"/>
<circle cx="44.5" cy="116.5" r="1.5" fill="#FF4C3B"/>
<circle cx="53.5" cy="116.5" r="1.5" fill="#FF4C3B"/>
<circle cx="62.5" cy="116.5" r="1.5" fill="#FF4C3B"/>
<circle cx="-0.5" cy="125.5" r="1.5" fill="#FF4C3B"/>
<circle cx="8.5" cy="125.5" r="1.5" fill="#FF4C3B"/>
<circle cx="17.5" cy="125.5" r="1.5" fill="#FF4C3B"/>
<circle cx="26.5" cy="125.5" r="1.5" fill="#FF4C3B"/>
<circle cx="35.5" cy="125.5" r="1.5" fill="#FF4C3B"/>
<circle cx="44.5" cy="125.5" r="1.5" fill="#FF4C3B"/>
<circle cx="53.5" cy="125.5" r="1.5" fill="#FF4C3B"/>
<circle cx="62.5" cy="125.5" r="1.5" fill="#FF4C3B"/>
</g>
<g opacity="0.8" filter="url(#filter0_d)">
<path d="M54.8135 200.5L73 169L91.1865 200.5H54.8135Z" stroke="white"/>
<path d="M54.8135 221.5L73 190L91.1865 221.5H54.8135Z" stroke="white"/>
<path d="M54.8135 242.5L73 211L91.1865 242.5H54.8135Z" stroke="white"/>
</g>
<defs>
<filter id="filter0_d" x="45.9473" y="162" width="58.1051" height="95" filterUnits="userSpaceOnUse" color-interpolation-filters="sRGB">
<feFlood flood-opacity="0" result="BackgroundImageFix"/>
<feColorMatrix in="SourceAlpha" type="matrix" values="0 0 0 0 0 0 0 0 0 0 0 0 0 0 0 0 0 0 127 0"/>
<feOffset dx="2" dy="4"/>
<feGaussianBlur stdDeviation="5"/>
<feColorMatrix type="matrix" values="0 0 0 0 0.8 0 0 0 0 0.183333 0 0 0 0 0.183333 0 0 0 0.2 0"/>
<feBlend mode="normal" in2="BackgroundImageFix" result="effect1_dropShadow"/>
<feBlend mode="normal" in="SourceGraphic" in2="effect1_dropShadow" result="shape"/>
</filter>
<linearGradient id="paint0_linear" x1="-110.5" y1="0" x2="-110.5" y2="377" gradientUnits="userSpaceOnUse">
<stop stop-color="white"/>
<stop offset="1" stop-color="white" stop-opacity="0"/>
</linearGradient>
<clipPath id="clip0">
<rect width="120" height="110" fill="white" transform="translate(-56 16)"/>
</clipPath>
</defs>
</svg>
