<svg width="784" height="100" viewBox="0 0 784 100" fill="none" xmlns="http://www.w3.org/2000/svg">
<g clip-path="url(#clip0)">
<path d="M350 98.7106C349.739 78.5094 343.364 58.8612 331.717 42.3537C320.07 25.8462 303.696 13.2536 284.752 6.23442C265.807 -0.784722 245.181 -1.90121 225.59 3.03201C205.999 7.96523 188.361 18.7168 175 33.8706C161.566 18.6374 143.811 7.85621 124.099 2.96155C104.386 -1.93312 83.6508 -0.709172 64.6511 6.47053C45.6515 13.6502 29.2885 26.4453 17.7394 43.1532C6.19038 59.8611 0.0027992 79.6897 0 100.001H50C50 99.5706 50 99.1406 50 98.7106C50.1711 85.4498 55.603 72.8001 65.1007 63.5442C69.8036 58.9612 75.363 55.3493 81.4617 52.9148C87.5604 50.4803 94.0789 49.2709 100.645 49.3556C107.211 49.4403 113.696 50.8175 119.73 53.4085C125.764 55.9995 131.228 59.7535 135.811 64.4564C140.394 69.1592 144.006 74.7187 146.441 80.8174C148.875 86.916 150.085 93.4345 150 100.001H200C200 99.5706 200 99.1406 200 98.7106C200.171 85.4498 205.603 72.8001 215.101 63.5442C219.804 58.9612 225.363 55.3493 231.462 52.9148C237.56 50.4803 244.079 49.2709 250.645 49.3556C257.211 49.4403 263.696 50.8175 269.73 53.4085C275.764 55.9995 281.228 59.7535 285.811 64.4564C290.394 69.1592 294.006 74.7187 296.441 80.8174C298.875 86.916 300.085 93.4345 300 100.001H350C350 99.5706 350 99.1406 350 98.7106Z" fill="url(#paint0_linear)"/>
<g style="mix-blend-mode:multiply" opacity="0.31">
<path d="M175 33.8701C158.857 52.1128 149.963 75.6407 150 100H200C200 99.5701 200 99.1401 200 98.7101C199.725 74.7956 190.851 51.7792 175 33.8701Z" fill="#0000FF"/>
</g>
<path d="M125 3.15029C110.222 -0.647083 94.7715 -1.01555 79.8293 2.07304C64.8872 5.16164 50.8489 11.6255 38.7875 20.9707C26.7262 30.3158 16.961 42.2948 10.2384 55.9921C3.51587 69.6893 0.0138255 84.7422 0 100H50C50 99.5703 50 99.1403 50 98.7103C50.1711 85.4495 55.603 72.7997 65.1007 63.5439C69.8036 58.9608 75.363 55.349 81.4617 52.9145C87.5604 50.48 94.0789 49.2706 100.645 49.3553C107.211 49.44 113.696 50.8172 119.73 53.4081C125.764 55.9991 131.228 59.7532 135.811 64.456C140.394 69.1588 144.006 74.7183 146.441 80.817C148.875 86.9157 150.085 93.4342 150 100C149.963 75.6408 158.857 52.1129 175 33.8703C161.783 18.8576 144.365 8.15611 125 3.15029V3.15029Z" fill="url(#paint1_linear)"/>
<path d="M443.76 89.0005H399.58V11.4805H405.78V83.3405H443.78L443.76 89.0005Z" fill="white"/>
<path d="M470 90.0006C458.55 90.0006 450.7 83.1706 450.7 72.2906C450.7 62.2906 457.64 55.6706 471.02 55.6706H488.33V48.0906C488.33 38.8106 482.64 34.2606 473.58 34.2606C464.52 34.2606 460.11 38.5306 459 45.3606H453.13C454.05 35.6806 460.71 28.8506 473.86 28.8506C486.04 28.8506 494.47 35.3406 494.47 47.1806V89.0006H488.47V80.2606H488.25C486.19 84.4206 480.49 90.0006 470 90.0006ZM488.33 69.2206V60.8506H471.21C461.42 60.8506 457.15 65.5206 457.15 72.1206C457.15 80.1206 463.36 84.6506 471.21 84.6506C480.72 84.6506 488.35 78.4406 488.35 69.2206H488.33Z" fill="white"/>
<path d="M512.84 29.8206H518.93V38.5806H519.28C520.87 34.3706 525.82 28.8506 535.16 28.8506C545.07 28.8506 550.65 33.8006 552.59 40.0106H552.93C554.52 35.2206 560.27 28.8506 570.98 28.8506C582.65 28.8506 590.51 35.9606 590.51 48.6106V89.0006H584.36V49.9106C584.36 40.1806 578.84 34.4806 569.95 34.4806C559.95 34.4806 554.69 42.0606 554.69 50.7106V89.0006H548.6V50.4806C548.6 40.2406 543.08 34.4806 534.08 34.4806C524.69 34.4806 518.93 41.4806 518.93 51.2206V89.0006H512.84V29.8206Z" fill="white"/>
<path d="M612.44 10C613.375 10 614.29 10.2774 615.068 10.7972C615.846 11.3169 616.452 12.0556 616.81 12.9199C617.168 13.7842 617.262 14.7353 617.079 15.6528C616.897 16.5703 616.446 17.4131 615.785 18.0746C615.123 18.7361 614.28 19.1866 613.363 19.3691C612.445 19.5516 611.494 19.458 610.63 19.1C609.766 18.742 609.027 18.1357 608.507 17.3579C607.987 16.58 607.71 15.6655 607.71 14.73C607.709 14.1085 607.83 13.4928 608.067 12.9184C608.305 12.3439 608.653 11.8219 609.092 11.3825C609.532 10.943 610.054 10.5946 610.628 10.3574C611.203 10.1201 611.818 9.99869 612.44 10V10ZM609.36 29.82H615.51V89H609.36V29.82Z" fill="white"/>
<path d="M634.82 29.8206H640.91V39.6106H641.14C643.25 34.6106 649.05 28.8506 659.59 28.8506C671.59 28.8506 680.43 36.5306 680.43 50.6006V89.0006H674.33V51.4506C674.33 41.2006 668.33 34.4506 658.28 34.4506C646.43 34.4506 640.91 43.4506 640.91 52.8506V89.0006H634.82V29.8206Z" fill="white"/>
<path d="M714.2 90.0006C702.75 90.0006 694.9 83.1706 694.9 72.2906C694.9 62.2906 701.84 55.6706 715.22 55.6706H732.53V48.0906C732.53 38.8106 726.84 34.2606 717.79 34.2606C708.74 34.2606 704.29 38.5306 703.21 45.3606H697.34C698.26 35.6806 704.92 28.8506 718.07 28.8506C730.26 28.8506 738.68 35.3406 738.68 47.1806V89.0006H732.68V80.2606H732.46C730.37 84.4206 724.68 90.0006 714.2 90.0006ZM732.53 69.2206V60.8506H715.39C705.6 60.8506 701.33 65.5206 701.33 72.1206C701.33 80.1206 707.54 84.6506 715.39 84.6506C724.9 84.6506 732.53 78.4406 732.53 69.2206V69.2206Z" fill="white"/>
<path d="M757 29.8204H763.1V39.4404H763.32C765.09 34.4404 769.47 28.9004 779.27 28.9004C780.61 28.9176 781.947 29.0346 783.27 29.2504V35.0004C781.686 34.7792 780.089 34.6656 778.49 34.6604C767.73 34.6604 763.06 42.4604 763.06 53.5004V89.0004H757V29.8204Z" fill="white"/>
</g>
<defs>
<linearGradient id="paint0_linear" x1="44.64" y1="-4.13938" x2="318.75" y2="154.121" gradientUnits="userSpaceOnUse">
<stop stop-color="#0055FF"/>
<stop offset="0.09" stop-color="#0A52F5"/>
<stop offset="0.23" stop-color="#2648D9"/>
<stop offset="0.42" stop-color="#523AAD"/>
<stop offset="0.65" stop-color="#90256F"/>
<stop offset="0.9" stop-color="#DE0B21"/>
<stop offset="1" stop-color="#FF0000"/>
</linearGradient>
<linearGradient id="paint1_linear" x1="30.31" y1="25.1703" x2="180.67" y2="130.45" gradientUnits="userSpaceOnUse">
<stop offset="0.5" stop-opacity="0"/>
<stop offset="1" stop-opacity="0.87"/>
</linearGradient>
<clipPath id="clip0">
<rect width="783.33" height="100" fill="white"/>
</clipPath>
</defs>
</svg>
